{
  "accessors": [
    {
      "bufferView": 2,
      "componentType": 5126,
      "count": 4494,
      "max": [
        29.306549072265625,
        35.891010284423828,
        75.70538330078125
      ],
      "min": [
        -20.7763671875,
        -14.275415420532227,
        0.16404199600219727
      ],
      "type": "VEC3"
    },
    {
      "bufferView": 2,
      "byteOffset": 53928,
      "componentType": 5126,
      "count": 4494,
      "max": [
        0.99643796682357788,
        0.99643790721893311,
        1
      ],
      "min": [
        -0.99643796682357788,
        -0.99643790721893311,
        -1
      ],
      "type": "VEC3"
    },
    {
      "bufferView": 1,
      "componentType": 5126,
      "count": 4494,
      "max": [
        2.1310169696807861,
        3.5433070659637451
      ],
      "min": [
        -2.1310169696807861,
        -3.5433070659637451
      ],
      "type": "VEC2"
    },
    {
      "bufferView": 0,
      "componentType": 5125,
      "count": 6780,
      "max": [
        4493
      ],
      "min": [
        0
      ],
      "type": "SCALAR"
    },
    {
      "bufferView": 2,
      "byteOffset": 107856,
      "componentType": 5126,
      "count": 1536,
      "max": [
        11.325412750244141,
        35.544376373291016,
        72.703414916992188
      ],
      "min": [
        -2.795229434967041,
        34.433097839355469,
        0.16404199600219727
      ],
      "type": "VEC3"
    },
    {
      "bufferView": 2,
      "byteOffset": 126288,
      "componentType": 5126,
      "count": 1536,
      "max": [
        0.9604109525680542,
        0.96041077375411987,
        1
      ],
      "min": [
        -0.9604109525680542,
        -0.96041083335876465,
        -1
      ],
      "type": "VEC3"
    },
    {
      "bufferView": 1,
      "byteOffset": 35952,
      "componentType": 5126,
      "count": 1536,
      "max": [
        3.7430956363677979,
        7.2506561279296875
      ],
      "min": [
        -3.7430956363677979,
        -3.1373759567886913e-17
      ],
      "type": "VEC2"
    },
    {
      "bufferView": 0,
      "byteOffset": 27120,
      "componentType": 5125,
      "count": 3072,
      "max": [
        1535
      ],
      "min": [
        0
      ],
      "type": "SCALAR"
    },
    {
      "bufferView": 2,
      "byteOffset": 144720,
      "componentType": 5126,
      "count": 524,
      "max": [
        78.563934326171875,
        24.907064437866211,
        57.906826019287109
      ],
      "min": [
        -44.626571655273438,
        -98.896354675292969,
        -5.5304792829482998e-15
      ],
      "type": "VEC3"
    },
    {
      "bufferView": 2,
      "byteOffset": 151008,
      "componentType": 5126,
      "count": 524,
      "max": [
        1,
        1,
        8.3041970810882049e-07
      ],
      "min": [
        -1,
        -1,
        -1.1227236882405123e-06
      ],
      "type": "VEC3"
    },
    {
      "bufferView": 1,
      "byteOffset": 48240,
      "componentType": 5126,
      "count": 524,
      "max": [
        10.568419456481934,
        2.3996908664703369
      ],
      "min": [
        -23.824777603149414,
        -6.7932212539082829e-24
      ],
      "type": "VEC2"
    },
    {
      "bufferView": 0,
      "byteOffset": 39408,
      "componentType": 5125,
      "count": 1146,
      "max": [
        523
      ],
      "min": [
        0
      ],
      "type": "SCALAR"
    },
    {
      "bufferView": 2,
      "byteOffset": 157296,
      "componentType": 5126,
      "count": 15048,
      "max": [
        78.563934326171875,
        43.643764495849609,
        80.239501953125
      ],
      "min": [
        -44.626571655273438,
        -98.896354675292969,
        -0.4921259880065918
      ],
      "type": "VEC3"
    },
    {
      "bufferView": 2,
      "byteOffset": 337872,
      "componentType": 5126,
      "count": 15048,
      "max": [
        1,
        1,
        1
      ],
      "min": [
        -1,
        -1,
        -1
      ],
      "type": "VEC3"
    },
    {
      "bufferView": 1,
      "byteOffset": 52432,
      "componentType": 5126,
      "count": 15048,
      "max": [
        102.20259857177734,
        99.193771362304688
      ],
      "min": [
        -48.903575897216797,
        -99.193771362304688
      ],
      "type": "VEC2"
    },
    {
      "bufferView": 0,
      "byteOffset": 43992,
      "componentType": 5125,
      "count": 44550,
      "max": [
        15047
      ],
      "min": [
        0
      ],
      "type": "SCALAR"
    },
    {
      "bufferView": 2,
      "byteOffset": 518448,
      "componentType": 5126,
      "count": 10683,
      "max": [
        78.783233642578125,
        35.828166961669922,
        80.380577087402344
      ],
      "min": [
        -44.830619812011719,
        -99.118743896484375,
        -1.4934579994126812e-14
      ],
      "type": "VEC3"
    },
    {
      "bufferView": 2,
      "byteOffset": 646644,
      "componentType": 5126,
      "count": 10683,
      "max": [
        1,
        1,
        1
      ],
      "min": [
        -1,
        -1,
        -1
      ],
      "type": "VEC3"
    },
    {
      "bufferView": 1,
      "byteOffset": 172816,
      "componentType": 5126,
      "count": 10683,
      "max": [
        79.415924072265625,
        40.509792327880859
      ],
      "min": [
        -76.831100463867188,
        -65.482406616210938
      ],
      "type": "VEC2"
    },
    {
      "bufferView": 0,
      "byteOffset": 222192,
      "componentType": 5125,
      "count": 20874,
      "max": [
        10682
      ],
      "min": [
        0
      ],
      "type": "SCALAR"
    },
    {
      "bufferView": 2,
      "byteOffset": 774840,
      "componentType": 5126,
      "count": 14745,
      "max": [
        77.759468078613281,
        43.277191162109375,
        72.703414916992188
      ],
      "min": [
        -44.046630859375,
        -97.530021667480469,
        7.8825936392339785e-15
      ],
      "type": "VEC3"
    },
    {
      "bufferView": 2,
      "byteOffset": 951780,
      "componentType": 5126,
      "count": 14745,
      "max": [
        1,
        1,
        1
      ],
      "min": [
        -1,
        -1,
        -1
      ],
      "type": "VEC3"
    },
    {
      "bufferView": 1,
      "byteOffset": 258280,
      "componentType": 5126,
      "count": 14745,
      "max": [
        100.84117889404297,
        98.766029357910156
      ],
      "min": [
        -100.86007690429688,
        -98.766029357910156
      ],
      "type": "VEC2"
    },
    {
      "bufferView": 0,
      "byteOffset": 305688,
      "componentType": 5125,
      "count": 23826,
      "max": [
        14744
      ],
      "min": [
        0
      ],
      "type": "SCALAR"
    },
    {
      "bufferView": 2,
      "byteOffset": 1128720,
      "componentType": 5126,
      "count": 52816,
      "max": [
        77.812095642089844,
        43.316169738769531,
        75.70538330078125
      ],
      "min": [
        -44.11260986328125,
        -97.648513793945312,
        -1.9899503911346983e-07
      ],
      "type": "VEC3"
    },
    {
      "bufferView": 2,
      "byteOffset": 1762512,
      "componentType": 5126,
      "count": 52816,
      "max": [
        1,
        1,
        1
      ],
      "min": [
        -1,
        -1,
        -1
      ],
      "type": "VEC3"
    },
    {
      "bufferView": 1,
      "byteOffset": 376240,
      "componentType": 5126,
      "count": 52816,
      "max": [
        100.74038696289062,
        98.807609558105469
      ],
      "min": [
        -100.89788055419922,
        -98.807609558105469
      ],
      "type": "VEC2"
    },
    {
      "bufferView": 0,
      "byteOffset": 400992,
      "componentType": 5125,
      "count": 89310,
      "max": [
        52815
      ],
      "min": [
        0
      ],
      "type": "SCALAR"
    },
    {
      "bufferView": 2,
      "byteOffset": 2396304,
      "componentType": 5126,
      "count": 120,
      "max": [
        50.630828857421875,
        -25.171413421630859,
        7.1620731353759766
      ],
      "min": [
        43.500095367431641,
        -40.983261108398438,
        0.25262466073036194
      ],
      "type": "VEC3"
    },
    {
      "bufferView": 2,
      "byteOffset": 2397744,
      "componentType": 5126,
      "count": 120,
      "max": [
        0.91412836313247681,
        0.91414344310760498,
        1
      ],
      "min": [
        -0.91412836313247681,
        -0.91414344310760498,
        -1
      ],
      "type": "VEC3"
    },
    {
      "bufferView": 1,
      "byteOffset": 798768,
      "componentType": 5126,
      "count": 120,
      "max": [
        4.2227692604064941,
        6.8996062278747559
      ],
      "min": [
        -4.2227692604064941,
        -3.4547243118286133
      ],
      "type": "VEC2"
    },
    {
      "bufferView": 0,
      "byteOffset": 758232,
      "componentType": 5125,
      "count": 180,
      "max": [
        119
      ],
      "min": [
        0
      ],
      "type": "SCALAR"
    },
    {
      "bufferView": 2,
      "byteOffset": 2399184,
      "componentType": 5126,
      "count": 3756,
      "max": [
        26.174736022949219,
        35.84149169921875,
        80.380577087402344
      ],
      "min": [
        -17.644552230834961,
        17.833534240722656,
        6.9757201859484141e-14
      ],
      "type": "VEC3"
    },
    {
      "bufferView": 2,
      "byteOffset": 2444256,
      "componentType": 5126,
      "count": 3756,
      "max": [
        0.91412794589996338,
        0.91414457559585571,
        1
      ],
      "min": [
        -0.91412794589996338,
        -0.91414457559585571,
        -1
      ],
      "type": "VEC3"
    },
    {
      "bufferView": 1,
      "byteOffset": 799728,
      "componentType": 5126,
      "count": 3756,
      "max": [
        9.8425321578979492,
        3.5008065700531006
      ],
      "min": [
        -9.8425321578979492,
        -3.5008065700531006
      ],
      "type": "VEC2"
    },
    {
      "bufferView": 0,
      "byteOffset": 758952,
      "componentType": 5125,
      "count": 6312,
      "max": [
        3755
      ],
      "min": [
        0
      ],
      "type": "SCALAR"
    },
    {
      "bufferView": 2,
      "byteOffset": 2489328,
      "componentType": 5126,
      "count": 212,
      "max": [
        29.809648513793945,
        35.404396057128906,
        76.361549377441406
      ],
      "min": [
        -21.118257522583008,
        -28.576114654541016,
        75.70538330078125
      ],
      "type": "VEC3"
    },
    {
      "bufferView": 2,
      "byteOffset": 2491872,
      "componentType": 5126,
      "count": 212,
      "max": [
        0.99999886751174927,
        0.99950003623962402,
        1
      ],
      "min": [
        -0.9999769926071167,
        -1,
        -1
      ],
      "type": "VEC3"
    },
    {
      "bufferView": 1,
      "byteOffset": 829776,
      "componentType": 5126,
      "count": 212,
      "max": [
        63.567085266113281,
        27.801778793334961
      ],
      "min": [
        -35.618473052978516,
        -27.801778793334961
      ],
      "type": "VEC2"
    },
    {
      "bufferView": 0,
      "byteOffset": 784200,
      "componentType": 5125,
      "count": 498,
      "max": [
        211
      ],
      "min": [
        0
      ],
      "type": "SCALAR"
    }
  ],
  "asset": {
    "extras": {
      "author": "ATD-London (https://sketchfab.com/ATD-London)",
      "license": "CC-BY-4.0 (http://creativecommons.org/licenses/by/4.0/)",
      "source": "https://sketchfab.com/3d-models/park-heights-woking-4dff14e50bcc48e2a9b7d74dd76d61dd",
      "title": "Park Heights, Woking"
    },
    "generator": "Sketchfab-8.11.0",
    "version": "2.0"
  },
  "bufferViews": [
    {
      "buffer": 0,
      "byteLength": 786192,
      "byteOffset": 0,
      "name": "floatBufferViews",
      "target": 34963
    },
    {
      "buffer": 0,
      "byteLength": 831472,
      "byteOffset": 786192,
      "byteStride": 8,
      "name": "floatBufferViews",
      "target": 34962
    },
    {
      "buffer": 0,
      "byteLength": 2494416,
      "byteOffset": 1617664,
      "byteStride": 12,
      "name": "floatBufferViews",
      "target": 34962
    }
  ],
  "buffers": [
    {
      "byteLength": 4112080,
      "uri": "scene.bin"
    }
  ],
  "extensionsRequired": [
    "KHR_materials_pbrSpecularGlossiness"
  ],
  "extensionsUsed": [
    "KHR_materials_pbrSpecularGlossiness"
  ],
  "images": [
    {
      "uri": "textures/Brick_Common_diffuse.png"
    },
    {
      "uri": "textures/Metal_-_Aluminum_emissive.png"
    }
  ],
  "materials": [
    {
      "doubleSided": true,
      "emissiveFactor": [
        0,
        0,
        0
      ],
      "extensions": {
        "KHR_materials_pbrSpecularGlossiness": {
          "diffuseFactor": [
            0.54509799999999997,
            0.54509799999999997,
            0.54509799999999997,
            1
          ],
          "glossinessFactor": 0,
          "specularFactor": [
            0,
            0,
            0
          ]
        }
      },
      "name": "00-Material_01"
    },
    {
      "doubleSided": true,
      "emissiveFactor": [
        0,
        0,
        0
      ],
      "extensions": {
        "KHR_materials_pbrSpecularGlossiness": {
          "diffuseFactor": [
            0.59999999999999998,
            0.59999999999999998,
            0.59999999999999998,
            1
          ],
          "glossinessFactor": 0,
          "specularFactor": [
            0,
            0,
            0
          ]
        }
      },
      "name": "Aluminum"
    },
    {
      "doubleSided": true,
      "emissiveFactor": [
        0,
        0,
        0
      ],
      "emissiveTexture": {
        "index": 0,
        "texCoord": 0
      },
      "extensions": {
        "KHR_materials_pbrSpecularGlossiness": {
          "diffuseFactor": [
            1,
            1,
            1,
            1
          ],
          "diffuseTexture": {
            "index": 0,
            "texCoord": 0
          },
          "glossinessFactor": 0,
          "specularFactor": [
            1,
            1,
            1
          ]
        }
      },
      "name": "Brick_Common"
    },
    {
      "doubleSided": true,
      "emissiveFactor": [
        0,
        0,
        0
      ],
      "extensions": {
        "KHR_materials_pbrSpecularGlossiness": {
          "diffuseFactor": [
            0.16111610572391852,
            0.12967465899129177,
            0.12967465899129177,
            1
          ],
          "glossinessFactor": 0,
          "specularFactor": [
            0,
            0,
            0
          ]
        }
      },
      "name": "Default"
    },
    {
      "doubleSided": true,
      "emissiveFactor": [
        0,
        0,
        0
      ],
      "extensions": {
        "KHR_materials_pbrSpecularGlossiness": {
          "diffuseFactor": [
            0.83733905322842406,
            0.83733905322842406,
            0.83733905322842406,
            1
          ],
          "glossinessFactor": 0,
          "specularFactor": [
            0,
            0,
            0
          ]
        }
      },
      "name": "Default_Wall"
    },
    {
      "alphaMode": "BLEND",
      "doubleSided": true,
      "emissiveFactor": [
        0,
        0,
        0
      ],
      "extensions": {
        "KHR_materials_pbrSpecularGlossiness": {
          "diffuseFactor": [
            0.092340099773783851,
            0.26046467582159288,
            0.29530434640095948,
            0.20000000000000001
          ],
          "glossinessFactor": 0,
          "specularFactor": [
            0,
            0,
            0
          ]
        }
      },
      "name": "Glass"
    },
    {
      "doubleSided": true,
      "emissiveFactor": [
        0,
        0,
        0
      ],
      "emissiveTexture": {
        "index": 1,
        "texCoord": 0
      },
      "extensions": {
        "KHR_materials_pbrSpecularGlossiness": {
          "diffuseFactor": [
            0.11632695176529188,
            0.12256760431052603,
            0.11584505741017981,
            1
          ],
          "glossinessFactor": 0,
          "specularFactor": [
            0,
            0,
            0
          ]
        }
      },
      "name": "Metal_-_Aluminum"
    },
    {
      "doubleSided": true,
      "emissiveFactor": [
        0,
        0,
        0
      ],
      "emissiveTexture": {
        "index": 1,
        "texCoord": 0
      },
      "extensions": {
        "KHR_materials_pbrSpecularGlossiness": {
          "diffuseFactor": [
            1,
            1,
            1,
            1
          ],
          "diffuseTexture": {
            "index": 1,
            "texCoord": 0
          },
          "glossinessFactor": 0,
          "specularFactor": [
            0,
            0,
            0
          ]
        }
      },
      "name": "Metal_-_Aluminum-Finsh"
    },
    {
      "doubleSided": true,
      "emissiveFactor": [
        0,
        0,
        0
      ],
      "emissiveTexture": {
        "index": 1,
        "texCoord": 0
      },
      "extensions": {
        "KHR_materials_pbrSpecularGlossiness": {
          "diffuseFactor": [
            0.28736521894451761,
            0.32061651769066518,
            0.29136987866780845,
            1
          ],
          "glossinessFactor": 0,
          "specularFactor": [
            0,
            0,
            0
          ]
        }
      },
      "name": "Metal_-_Aluminum_Ext"
    },
    {
      "doubleSided": true,
      "emissiveFactor": [
        0,
        0,
        0
      ],
      "extensions": {
        "KHR_materials_pbrSpecularGlossiness": {
          "diffuseFactor": [
            0.94901999999999997,
            0.94901999999999997,
            1,
            1
          ],
          "glossinessFactor": 0,
          "specularFactor": [
            0,
            0,
            0
          ]
        }
      },
      "name": "Paint_-_White_Lining"
    }
  ],
  "meshes": [
    {
      "primitives": [
        {
          "attributes": {
            "NORMAL": 1,
            "POSITION": 0,
            "TEXCOORD_0": 2
          },
          "indices": 3,
          "material": 0,
          "mode": 4
        }
      ]
    },
    {
      "primitives": [
        {
          "attributes": {
            "NORMAL": 5,
            "POSITION": 4,
            "TEXCOORD_0": 6
          },
          "indices": 7,
          "material": 1,
          "mode": 4
        }
      ]
    },
    {
      "primitives": [
        {
          "attributes": {
            "NORMAL": 9,
            "POSITION": 8,
            "TEXCOORD_0": 10
          },
          "indices": 11,
          "material": 2,
          "mode": 4
        }
      ]
    },
    {
      "primitives": [
        {
          "attributes": {
            "NORMAL": 13,
            "POSITION": 12,
            "TEXCOORD_0": 14
          },
          "indices": 15,
          "material": 3,
          "mode": 4
        }
      ]
    },
    {
      "primitives": [
        {
          "attributes": {
            "NORMAL": 17,
            "POSITION": 16,
            "TEXCOORD_0": 18
          },
          "indices": 19,
          "material": 4,
          "mode": 4
        }
      ]
    },
    {
      "primitives": [
        {
          "attributes": {
            "NORMAL": 21,
            "POSITION": 20,
            "TEXCOORD_0": 22
          },
          "indices": 23,
          "material": 5,
          "mode": 4
        }
      ]
    },
    {
      "primitives": [
        {
          "attributes": {
            "NORMAL": 25,
            "POSITION": 24,
            "TEXCOORD_0": 26
          },
          "indices": 27,
          "material": 6,
          "mode": 4
        }
      ]
    },
    {
      "primitives": [
        {
          "attributes": {
            "NORMAL": 29,
            "POSITION": 28,
            "TEXCOORD_0": 30
          },
          "indices": 31,
          "material": 7,
          "mode": 4
        }
      ]
    },
    {
      "primitives": [
        {
          "attributes": {
            "NORMAL": 33,
            "POSITION": 32,
            "TEXCOORD_0": 34
          },
          "indices": 35,
          "material": 8,
          "mode": 4
        }
      ]
    },
    {
      "primitives": [
        {
          "attributes": {
            "NORMAL": 37,
            "POSITION": 36,
            "TEXCOORD_0": 38
          },
          "indices": 39,
          "material": 9,
          "mode": 4
        }
      ]
    }
  ],
  "nodes": [
    {
      "children": [
        1
      ],
      "name": "RootNode (gltf orientation matrix)",
      "rotation": [
        -0.70710678118654746,
        -0,
        -0,
        0.70710678118654757
      ]
    },
    {
      "children": [
        2
      ],
      "name": "RootNode (model correction matrix)"
    },
    {
      "children": [
        3,
        4,
        5,
        6,
        7,
        8,
        9,
        10,
        11,
        12
      ],
      "name": "Block M_Arch_2015.obj.cleaner.materialmerger.gles"
    },
    {
      "mesh": 0,
      "name": ""
    },
    {
      "mesh": 1,
      "name": ""
    },
    {
      "mesh": 2,
      "name": ""
    },
    {
      "mesh": 3,
      "name": ""
    },
    {
      "mesh": 4,
      "name": ""
    },
    {
      "mesh": 5,
      "name": ""
    },
    {
      "mesh": 6,
      "name": ""
    },
    {
      "mesh": 7,
      "name": ""
    },
    {
      "mesh": 8,
      "name": ""
    },
    {
      "mesh": 9,
      "name": ""
    }
  ],
  "samplers": [
    {
      "magFilter": 9729,
      "minFilter": 9987,
      "wrapS": 10497,
      "wrapT": 10497
    }
  ],
  "scene": 0,
  "scenes": [
    {
      "name": "OSG_Scene",
      "nodes": [
        0
      ]
    }
  ],
  "textures": [
    {
      "sampler": 0,
      "source": 0
    },
    {
      "sampler": 0,
      "source": 1
    }
  ]
}

